<svg width="20" height="20" viewBox="0 0 20 20" fill="none" xmlns="http://www.w3.org/2000/svg">
<mask id="mask0_650_284" style="mask-type:alpha" maskUnits="userSpaceOnUse" x="0" y="0" width="20" height="20">
<rect width="20" height="20" fill="#D9D9D9"/>
</mask>
<g mask="url(#mask0_650_284)">
<path d="M4.75581 16.5837C4.38609 16.5837 4.07032 16.4528 3.80852 16.1912C3.54685 15.9294 3.41602 15.6136 3.41602 15.2439V7.00033C3.41602 6.00671 3.76483 5.16109 4.46247 4.46345C5.16011 3.76581 6.00574 3.41699 6.99935 3.41699H12.9993C13.993 3.41699 14.8386 3.76581 15.5362 4.46345C16.2339 5.16109 16.5827 6.00671 16.5827 7.00033V15.2439C16.5827 15.6136 16.4518 15.9294 16.1902 16.1912C15.9284 16.4528 15.6126 16.5837 15.2429 16.5837H4.75581ZM4.75581 15.5003H15.2429C15.3178 15.5003 15.3792 15.4763 15.4273 15.4282C15.4753 15.3802 15.4993 15.3187 15.4993 15.2439V7.00033C15.4993 6.31283 15.2546 5.72428 14.765 5.2347C14.2754 4.74512 13.6868 4.50033 12.9993 4.50033H6.99935C6.31185 4.50033 5.72331 4.74512 5.23372 5.2347C4.74414 5.72428 4.49935 6.31283 4.49935 7.00033V15.2439C4.49935 15.3187 4.52338 15.3802 4.57143 15.4282C4.61949 15.4763 4.68095 15.5003 4.75581 15.5003ZM7.49497 9.79199C7.1347 9.79199 6.83004 9.66602 6.58102 9.41408C6.33213 9.16227 6.20768 8.85623 6.20768 8.49595C6.20768 8.13567 6.33365 7.83102 6.5856 7.58199C6.8374 7.3331 7.14345 7.20866 7.50372 7.20866C7.864 7.20866 8.16865 7.33463 8.41768 7.58658C8.66657 7.83838 8.79102 8.14442 8.79102 8.5047C8.79102 8.86498 8.66504 9.16963 8.4131 9.41866C8.16129 9.66755 7.85525 9.79199 7.49497 9.79199ZM12.495 9.79199C12.1347 9.79199 11.83 9.66602 11.581 9.41408C11.3321 9.16227 11.2077 8.85623 11.2077 8.49595C11.2077 8.13567 11.3337 7.83102 11.5856 7.58199C11.8374 7.3331 12.1434 7.20866 12.5037 7.20866C12.864 7.20866 13.1687 7.33463 13.4177 7.58658C13.6666 7.83838 13.791 8.14442 13.791 8.5047C13.791 8.86498 13.665 9.16963 13.4131 9.41866C13.1613 9.66755 12.8553 9.79199 12.495 9.79199ZM6.20768 15.5003V14.0441C6.20768 13.6731 6.33852 13.3578 6.60018 13.098C6.86185 12.8385 7.17761 12.7087 7.54747 12.7087H12.4512C12.8211 12.7087 13.1368 12.8395 13.3985 13.1012C13.6602 13.3628 13.791 13.6786 13.791 14.0485V15.5003H12.7077V14.0485C12.7077 13.9736 12.6837 13.9121 12.6356 13.8641C12.5875 13.816 12.5261 13.792 12.4512 13.792H10.541V15.5003H9.45768V13.792H7.54747C7.47261 13.792 7.41115 13.816 7.3631 13.8641C7.31504 13.9121 7.29102 13.9736 7.29102 14.0485V15.5003H6.20768ZM4.75581 15.5003H15.4993H4.49935H4.75581Z" fill="#282D3C"/>
</g>
</svg>
