<svg width="21" height="20" viewBox="0 0 21 20" fill="none" xmlns="http://www.w3.org/2000/svg">
<mask id="mask0_650_1376" style="mask-type:alpha" maskUnits="userSpaceOnUse" x="0" y="0" width="21" height="20">
<rect x="0.966797" width="20" height="20" fill="#D9D9D9"/>
</mask>
<g mask="url(#mask0_650_1376)">
<path d="M6.46211 15.6796C6.13655 15.6796 5.85933 15.5636 5.63044 15.3318C5.40155 15.1 5.28711 14.8214 5.28711 14.4958C5.28711 14.1702 5.40301 13.893 5.63482 13.6641C5.86662 13.4352 6.1453 13.3208 6.47086 13.3208C6.79641 13.3208 7.07364 13.4367 7.30253 13.6685C7.53142 13.9003 7.64586 14.179 7.64586 14.5046C7.64586 14.8301 7.52996 15.1073 7.29815 15.3362C7.06635 15.5651 6.78767 15.6796 6.46211 15.6796ZM10.9621 15.6796C10.6366 15.6796 10.3593 15.5636 10.1304 15.3318C9.90155 15.1 9.78711 14.8214 9.78711 14.4958C9.78711 14.1702 9.90301 13.893 10.1348 13.6641C10.3666 13.4352 10.6453 13.3208 10.9709 13.3208C11.2964 13.3208 11.5736 13.4367 11.8025 13.6685C12.0314 13.9003 12.1459 14.179 12.1459 14.5046C12.1459 14.8301 12.03 15.1073 11.7982 15.3362C11.5663 15.5651 11.2877 15.6796 10.9621 15.6796ZM15.4621 15.6796C15.1366 15.6796 14.8593 15.5636 14.6304 15.3318C14.4016 15.1 14.2871 14.8214 14.2871 14.4958C14.2871 14.1702 14.403 13.893 14.6348 13.6641C14.8666 13.4352 15.1453 13.3208 15.4709 13.3208C15.7964 13.3208 16.0736 13.4367 16.3025 13.6685C16.5314 13.9003 16.6459 14.179 16.6459 14.5046C16.6459 14.8301 16.53 15.1073 16.2982 15.3362C16.0663 15.5651 15.7877 15.6796 15.4621 15.6796ZM6.46211 11.1796C6.13655 11.1796 5.85933 11.0636 5.63044 10.8318C5.40155 10.6 5.28711 10.3214 5.28711 9.9958C5.28711 9.67025 5.40301 9.39302 5.63482 9.16413C5.86662 8.93525 6.1453 8.8208 6.47086 8.8208C6.79641 8.8208 7.07364 8.9367 7.30253 9.16851C7.53142 9.40032 7.64586 9.679 7.64586 10.0046C7.64586 10.3301 7.52996 10.6073 7.29815 10.8362C7.06635 11.0651 6.78767 11.1796 6.46211 11.1796ZM10.9621 11.1796C10.6366 11.1796 10.3593 11.0636 10.1304 10.8318C9.90155 10.6 9.78711 10.3214 9.78711 9.9958C9.78711 9.67025 9.90301 9.39302 10.1348 9.16413C10.3666 8.93525 10.6453 8.8208 10.9709 8.8208C11.2964 8.8208 11.5736 8.9367 11.8025 9.16851C12.0314 9.40032 12.1459 9.679 12.1459 10.0046C12.1459 10.3301 12.03 10.6073 11.7982 10.8362C11.5663 11.0651 11.2877 11.1796 10.9621 11.1796ZM15.4621 11.1796C15.1366 11.1796 14.8593 11.0636 14.6304 10.8318C14.4016 10.6 14.2871 10.3214 14.2871 9.9958C14.2871 9.67025 14.403 9.39302 14.6348 9.16413C14.8666 8.93525 15.1453 8.8208 15.4709 8.8208C15.7964 8.8208 16.0736 8.9367 16.3025 9.16851C16.5314 9.40032 16.6459 9.679 16.6459 10.0046C16.6459 10.3301 16.53 10.6073 16.2982 10.8362C16.0663 11.0651 15.7877 11.1796 15.4621 11.1796ZM6.46211 6.67955C6.13655 6.67955 5.85933 6.56365 5.63044 6.33184C5.40155 6.10004 5.28711 5.82136 5.28711 5.4958C5.28711 5.17024 5.40301 4.89302 5.63482 4.66413C5.86662 4.43524 6.1453 4.3208 6.47086 4.3208C6.79641 4.3208 7.07364 4.4367 7.30253 4.66851C7.53142 4.90031 7.64586 5.179 7.64586 5.50455C7.64586 5.83011 7.52996 6.10733 7.29815 6.33622C7.06635 6.56511 6.78767 6.67955 6.46211 6.67955ZM10.9621 6.67955C10.6366 6.67955 10.3593 6.56365 10.1304 6.33184C9.90155 6.10004 9.78711 5.82136 9.78711 5.4958C9.78711 5.17024 9.90301 4.89302 10.1348 4.66413C10.3666 4.43524 10.6453 4.3208 10.9709 4.3208C11.2964 4.3208 11.5736 4.4367 11.8025 4.66851C12.0314 4.90031 12.1459 5.179 12.1459 5.50455C12.1459 5.83011 12.03 6.10733 11.7982 6.33622C11.5663 6.56511 11.2877 6.67955 10.9621 6.67955ZM15.4621 6.67955C15.1366 6.67955 14.8593 6.56365 14.6304 6.33184C14.4016 6.10004 14.2871 5.82136 14.2871 5.4958C14.2871 5.17024 14.403 4.89302 14.6348 4.66413C14.8666 4.43524 15.1453 4.3208 15.4709 4.3208C15.7964 4.3208 16.0736 4.4367 16.3025 4.66851C16.5314 4.90031 16.6459 5.179 16.6459 5.50455C16.6459 5.83011 16.53 6.10733 16.2982 6.33622C16.0663 6.56511 15.7877 6.67955 15.4621 6.67955Z" fill="#1C1B1F"/>
</g>
</svg>
