<svg width="20" height="20" viewBox="0 0 20 20" fill="none" xmlns="http://www.w3.org/2000/svg">
<mask id="mask0_650_1317" style="mask-type:alpha" maskUnits="userSpaceOnUse" x="0" y="0" width="20" height="20">
<rect width="20" height="20" fill="#D9D9D9"/>
</mask>
<g mask="url(#mask0_650_1317)">
<path d="M9.9993 17.9234L7.67388 15.5836H4.41596V12.3257L2.07617 10.0003L4.41596 7.67486V4.41694H7.67388L9.9993 2.07715L12.3247 4.41694H15.5826V7.67486L17.9224 10.0003L15.5826 12.3257V15.5836H12.3247L9.9993 17.9234ZM9.9993 16.3753L11.8743 14.5003H14.4993V11.8753L16.3743 10.0003L14.4993 8.12527V5.50027H11.8743L9.9993 3.62527L8.1243 5.50027H5.4993V8.12527L3.6243 10.0003L5.4993 11.8753V14.5003H8.1243L9.9993 16.3753Z" fill="#0F1ED2"/>
</g>
</svg>
