<svg width="21" height="20" viewBox="0 0 21 20" fill="none" xmlns="http://www.w3.org/2000/svg">
<mask id="mask0_650_1382" style="mask-type:alpha" maskUnits="userSpaceOnUse" x="0" y="0" width="21" height="20">
<rect x="0.966797" width="20" height="20" fill="#D9D9D9"/>
</mask>
<g mask="url(#mask0_650_1382)">
<path d="M7.28775 12.7915H10.0634V12.2082H7.28775V12.7915ZM14.0634 12.7915H14.6465V12.2082H14.0634V12.7915ZM7.28775 10.2915H10.0634V9.70817H7.28775V10.2915ZM14.0634 10.7915H14.6465V7.20817H14.0634V10.7915ZM7.28775 7.7915H10.0634V7.20817H7.28775V7.7915ZM4.72358 16.5832C4.34844 16.5832 4.03136 16.4537 3.77233 16.1946C3.5133 15.9356 3.38379 15.6185 3.38379 15.2434V4.7563C3.38379 4.38116 3.5133 4.06407 3.77233 3.80505C4.03136 3.54602 4.34844 3.4165 4.72358 3.4165H17.2107C17.5858 3.4165 17.9029 3.54602 18.1619 3.80505C18.4209 4.06407 18.5505 4.38116 18.5505 4.7563V15.2434C18.5505 15.6185 18.4209 15.9356 18.1619 16.1946C17.9029 16.4537 17.5858 16.5832 17.2107 16.5832H4.72358ZM4.72358 15.4998H17.2107C17.2748 15.4998 17.3336 15.4731 17.3869 15.4196C17.4404 15.3663 17.4671 15.3075 17.4671 15.2434V4.7563C17.4671 4.69213 17.4404 4.63338 17.3869 4.58005C17.3336 4.52657 17.2748 4.49984 17.2107 4.49984H4.72358C4.65941 4.49984 4.60066 4.52657 4.54733 4.58005C4.49386 4.63338 4.46712 4.69213 4.46712 4.7563V15.2434C4.46712 15.3075 4.49386 15.3663 4.54733 15.4196C4.60066 15.4731 4.65941 15.4998 4.72358 15.4998Z" fill="#1C1B1F"/>
</g>
</svg>
