<svg width="75" height="20" viewBox="0 0 75 20" fill="none" xmlns="http://www.w3.org/2000/svg">
<path d="M0 0.613132H6.03689C7.41868 0.613132 9.04502 1.90386 9.7698 2.61111L20.3587 14.3544V0.613132H23.956V19.3641H17.6569C16.5344 19.3258 15.4325 19.0959 14.1509 17.8347L3.57971 6.0678V19.3641H0V0.613132ZM75 19.4908C70.6926 20.0802 66.3321 20.1362 61.9657 19.7708C59.4084 19.5439 56.9041 19.0193 54.6089 17.8199C51.7098 16.317 50.7876 12.9429 50.8259 9.88106C50.8583 7.055 51.698 4.04035 54.2171 2.39894C55.8699 1.31449 57.6347 0.957916 59.5086 0.619025C64.6262 -0.282719 69.7527 -0.0793843 74.7466 0.468735V3.1445C68.86 2.00111 62.6404 2.28401 60.525 4.98924C59.2051 6.67191 59.0165 8.34573 59.0165 9.75729C59.0165 12.2975 59.8857 16.152 65.0475 16.9035C68.4151 17.3985 71.7503 17.0213 75 16.432V19.4967V19.4908ZM38.1305 16.5734H49.5414V19.3759C43.9317 19.591 38.54 19.6853 32.8714 19.4496C28.0631 19.2521 27.2323 16.8327 27.141 14.5077V0.610185H49.2733V3.28005H34.9544V8.05399H48.0034V10.659H34.9544C34.9544 12.0676 35.0016 13.6678 35.0134 13.9566C35.09 15.7748 35.9326 16.4437 38.1305 16.5734Z" fill="#6B7387"/>
</svg>
