<svg width="20" height="20" viewBox="0 0 20 20" fill="none" xmlns="http://www.w3.org/2000/svg">
<mask id="mask0_650_1370" style="mask-type:alpha" maskUnits="userSpaceOnUse" x="0" y="0" width="20" height="20">
<rect width="20" height="20" fill="#D9D9D9"/>
</mask>
<g mask="url(#mask0_650_1370)">
<path d="M6.09658 17.5832C5.62644 17.5832 5.22901 17.4229 4.90428 17.1023C4.57942 16.7819 4.41699 16.3962 4.41699 15.9453V4.67296C4.41699 4.2488 4.56178 3.88234 4.85137 3.57359C5.14081 3.26484 5.49762 3.0672 5.92178 2.98067L12.8401 1.479V13.9438L6.03491 15.4336C5.90185 15.465 5.77949 15.5267 5.66783 15.6188C5.55616 15.711 5.50033 15.8198 5.50033 15.9453C5.50033 16.1162 5.5597 16.2514 5.67845 16.3509C5.79706 16.4502 5.93644 16.4998 6.09658 16.4998H14.491V3.9165H15.5837V17.5832H6.09658ZM7.74387 13.9407L11.7568 13.0303V2.82838L7.74387 3.70171V13.9407ZM6.66053 14.173V3.95505L6.01158 4.08796C5.8631 4.12643 5.74074 4.19775 5.64449 4.30192C5.54838 4.40609 5.50033 4.52977 5.50033 4.67296V14.5032C5.58574 14.4593 5.67338 14.425 5.76324 14.4005C5.85296 14.3759 5.94324 14.3471 6.03408 14.314L6.66053 14.173Z" fill="#1C1B1F"/>
</g>
</svg>
