<svg width="20" height="20" viewBox="0 0 20 20" fill="none" xmlns="http://www.w3.org/2000/svg">
<mask id="mask0_650_1625" style="mask-type:alpha" maskUnits="userSpaceOnUse" x="0" y="0" width="20" height="20">
<rect width="20" height="20" fill="#D9D9D9"/>
</mask>
<g mask="url(#mask0_650_1625)">
<mask id="mask1_650_1625" style="mask-type:alpha" maskUnits="userSpaceOnUse" x="0" y="0" width="21" height="21">
<rect x="0.0283203" y="0.464844" width="20" height="20" fill="#D9D9D9"/>
</mask>
<g mask="url(#mask1_650_1625)">
<path d="M5.4129 16.1538C4.85471 16.1538 4.38026 15.9584 3.98957 15.5678C3.59874 15.1771 3.40332 14.7025 3.40332 14.1442C3.40332 13.586 3.59874 13.1116 3.98957 12.7209C4.38026 12.33 4.85471 12.1346 5.4129 12.1346C5.9711 12.1346 6.44561 12.33 6.83645 12.7209C7.22714 13.1116 7.42249 13.586 7.42249 14.1442C7.42249 14.7025 7.22714 15.1771 6.83645 15.5678C6.44561 15.9584 5.9711 16.1538 5.4129 16.1538ZM14.6437 16.1538C14.0855 16.1538 13.611 15.9584 13.2202 15.5678C12.8295 15.1771 12.6342 14.7025 12.6342 14.1442C12.6342 13.586 12.8295 13.1116 13.2202 12.7209C13.611 12.33 14.0855 12.1346 14.6437 12.1346C15.2019 12.1346 15.6764 12.33 16.0671 12.7209C16.4579 13.1116 16.6533 13.586 16.6533 14.1442C16.6533 14.7025 16.4579 15.1771 16.0671 15.5678C15.6764 15.9584 15.2019 16.1538 14.6437 16.1538ZM10.0283 8.79505C9.47013 8.79505 8.99561 8.59963 8.60478 8.2088C8.21408 7.8181 8.01874 7.34366 8.01874 6.78546C8.01874 6.22713 8.21408 5.75262 8.60478 5.36192C8.99561 4.97123 9.47013 4.77588 10.0283 4.77588C10.5865 4.77588 11.061 4.97123 11.4519 5.36192C11.8426 5.75262 12.0379 6.22713 12.0379 6.78546C12.0379 7.34366 11.8426 7.8181 11.4519 8.2088C11.061 8.59963 10.5865 8.79505 10.0283 8.79505Z" fill="#282D3C"/>
</g>
</g>
</svg>
