<svg width="20" height="20" viewBox="0 0 20 20" fill="none" xmlns="http://www.w3.org/2000/svg">
<mask id="mask0_468_3106" style="mask-type:alpha" maskUnits="userSpaceOnUse" x="0" y="0" width="20" height="20">
<rect width="20" height="20" fill="#D9D9D9"/>
</mask>
<g mask="url(#mask0_468_3106)">
<path d="M10.0001 9.74333C9.28133 9.74333 8.67112 9.49249 8.16946 8.99083C7.66765 8.48902 7.41675 7.87874 7.41675 7.15999C7.41675 6.44124 7.66765 5.83104 8.16946 5.32937C8.67112 4.82756 9.28133 4.57666 10.0001 4.57666C10.7188 4.57666 11.329 4.82756 11.8307 5.32937C12.3325 5.83104 12.5834 6.44124 12.5834 7.15999C12.5834 7.87874 12.3325 8.48902 11.8307 8.99083C11.329 9.49249 10.7188 9.74333 10.0001 9.74333ZM4.41675 15.4229V13.9035C4.41675 13.6483 4.49286 13.4023 4.64508 13.1656C4.7973 12.929 5.01022 12.7241 5.28383 12.551C6.01022 12.1334 6.77369 11.8132 7.57425 11.5904C8.3748 11.3676 9.18196 11.2562 9.99571 11.2562C10.8095 11.2562 11.6181 11.3676 12.4215 11.5904C13.225 11.8132 13.9899 12.1334 14.7163 12.551C14.9899 12.7102 15.2029 12.9116 15.3551 13.1552C15.5073 13.3988 15.5834 13.6483 15.5834 13.9035V15.4229H4.41675ZM5.50008 14.3396H14.5001V13.9035C14.5001 13.8156 14.4684 13.7329 14.4051 13.6554C14.3416 13.5779 14.2542 13.5121 14.1428 13.4581C13.5358 13.0906 12.8802 12.8123 12.1757 12.6231C11.4711 12.4341 10.7459 12.3396 10.0001 12.3396C9.25425 12.3396 8.52904 12.4341 7.82446 12.6231C7.12001 12.8123 6.46432 13.0906 5.85737 13.4581C5.74529 13.5351 5.65772 13.6087 5.59466 13.6792C5.53161 13.7496 5.50008 13.8244 5.50008 13.9035V14.3396ZM10.0045 8.65999C10.4182 8.65999 10.7709 8.5127 11.0626 8.21812C11.3542 7.92353 11.5001 7.56937 11.5001 7.15562C11.5001 6.74187 11.3528 6.38916 11.0582 6.09749C10.7636 5.80583 10.4095 5.65999 9.99571 5.65999C9.58196 5.65999 9.22925 5.80735 8.93758 6.10208C8.64592 6.39666 8.50008 6.75083 8.50008 7.16458C8.50008 7.57819 8.64737 7.93083 8.94196 8.22249C9.23654 8.51416 9.59071 8.65999 10.0045 8.65999Z" fill="#282D3C"/>
</g>
</svg>
