<svg width="20" height="20" viewBox="0 0 20 20" fill="none" xmlns="http://www.w3.org/2000/svg">
<mask id="mask0_650_1358" style="mask-type:alpha" maskUnits="userSpaceOnUse" x="0" y="0" width="20" height="20">
<rect width="20" height="20" fill="#D9D9D9"/>
</mask>
<g mask="url(#mask0_650_1358)">
<path d="M5.71615 15.5947L7.44531 14.7565C7.29892 14.2704 7.17094 13.7795 7.06135 13.2836C6.95191 12.7879 6.8651 12.2847 6.80094 11.774L5.82823 12.5145C5.79087 12.5411 5.76281 12.5718 5.74406 12.6066C5.72545 12.6413 5.71615 12.68 5.71615 12.7228V15.5947ZM8.49969 14.5001H11.4997C11.7219 13.7886 11.9025 13.1029 12.0414 12.4432C12.1802 11.7835 12.2497 11.0984 12.2497 10.3878C12.2497 9.22447 12.1121 8.09523 11.837 7.00009C11.562 5.90495 10.9495 4.84676 9.99969 3.82551C9.04983 4.86065 8.4374 5.92231 8.1624 7.01051C7.88726 8.0987 7.74969 9.22447 7.74969 10.3878C7.74969 11.0984 7.8226 11.7835 7.96844 12.4432C8.11427 13.1029 8.29135 13.7886 8.49969 14.5001ZM9.99969 10.2918C9.63649 10.2918 9.33038 10.1673 9.08135 9.91842C8.83247 9.6694 8.70802 9.36329 8.70802 9.00009C8.70802 8.6369 8.83247 8.33079 9.08135 8.08176C9.33038 7.83287 9.63649 7.70843 9.99969 7.70843C10.3629 7.70843 10.669 7.83287 10.918 8.08176C11.1669 8.33079 11.2914 8.6369 11.2914 9.00009C11.2914 9.36329 11.1669 9.6694 10.918 9.91842C10.669 10.1673 10.3629 10.2918 9.99969 10.2918ZM14.2832 15.5947V12.7309C14.2832 12.6881 14.2739 12.6481 14.2553 12.6107C14.2366 12.5732 14.2085 12.5411 14.1711 12.5145L13.1984 11.774C13.1343 12.2847 13.0408 12.816 12.918 13.3678C12.7951 13.9196 12.6738 14.3852 12.5541 14.7645L14.2832 15.5947ZM9.99969 2.50488C11.2069 3.30724 12.0643 4.39995 12.5718 5.78301C13.0793 7.16593 13.333 8.49683 13.333 9.77572C13.333 9.89113 13.3343 10.0079 13.337 10.1259C13.3396 10.244 13.3383 10.3634 13.333 10.4841L14.8474 11.6795C15.0066 11.8163 15.1329 11.9734 15.2264 12.1507C15.3198 12.3281 15.3666 12.5215 15.3666 12.7309V17.4151L11.7832 15.5834H8.20802L4.63281 17.4151V12.7228C4.63281 12.5134 4.67476 12.3166 4.75865 12.1324C4.8424 11.9481 4.97087 11.7945 5.14406 11.6716L6.66635 10.4761V9.77572C6.66635 8.49683 6.92358 7.16593 7.43802 5.78301C7.95247 4.39995 8.80635 3.30724 9.99969 2.50488Z" fill="#1C1B1F"/>
</g>
</svg>
