<svg width="20" height="20" viewBox="0 0 20 20" fill="none" xmlns="http://www.w3.org/2000/svg">
<mask id="mask0_650_1617" style="mask-type:alpha" maskUnits="userSpaceOnUse" x="0" y="0" width="20" height="20">
<rect width="20" height="20" fill="#D9D9D9"/>
</mask>
<g mask="url(#mask0_650_1617)">
<path d="M13.9993 14.0005C14.3466 14.0005 14.6417 13.8789 14.8848 13.6359C15.1278 13.3928 15.2493 13.0977 15.2493 12.7505C15.2493 12.4032 15.1278 12.1081 14.8848 11.8651C14.6417 11.622 14.3466 11.5005 13.9993 11.5005C13.6521 11.5005 13.357 11.622 13.1139 11.8651C12.8709 12.1081 12.7493 12.4032 12.7493 12.7505C12.7493 13.0977 12.8709 13.3928 13.1139 13.6359C13.357 13.8789 13.6521 14.0005 13.9993 14.0005ZM13.9975 16.5005C14.4484 16.5005 14.8601 16.3907 15.2325 16.1711C15.6048 15.9515 15.9048 15.6612 16.1323 15.3001C15.8075 15.1142 15.4666 14.9762 15.1094 14.8859C14.7521 14.7956 14.3806 14.7505 13.9948 14.7505C13.6089 14.7505 13.2389 14.7991 12.8848 14.8963C12.5306 14.9935 12.1912 15.1281 11.8664 15.3001C12.0939 15.6612 12.3932 15.9515 12.7643 16.1711C13.1355 16.3907 13.5465 16.5005 13.9975 16.5005ZM9.99935 17.5678C8.28032 17.1457 6.83671 16.1473 5.66852 14.5726C4.50018 12.9978 3.91602 11.2307 3.91602 9.2713V4.78901L9.99935 2.44922L16.0827 4.78901V9.38505C15.8466 9.27825 15.6425 9.19651 15.4704 9.13984C15.2984 9.08332 15.1414 9.0438 14.9993 9.0213V5.51339L9.99935 3.60464L4.99935 5.51339V9.2713C4.99935 10.0373 5.10352 10.7721 5.31185 11.4757C5.52018 12.1791 5.81775 12.8298 6.20456 13.4276C6.59122 14.0253 7.05622 14.5571 7.59956 15.023C8.14275 15.4888 8.7397 15.8809 9.39039 16.1992L9.41456 16.1911C9.48289 16.3716 9.60115 16.5776 9.76935 16.809C9.93768 17.0403 10.1196 17.2632 10.315 17.478C10.2937 17.4887 10.2412 17.5037 10.1573 17.523C10.0734 17.5421 10.0207 17.5571 9.99935 17.5678ZM13.9946 17.5838C12.9989 17.5838 12.1535 17.2347 11.4585 16.5365C10.7635 15.8385 10.416 14.9915 10.416 13.9957C10.416 13 10.7651 12.1546 11.4633 11.4596C12.1614 10.7646 13.0083 10.4171 14.0041 10.4171C14.9998 10.4171 15.8452 10.7662 16.5402 11.4644C17.2352 12.1625 17.5827 13.0094 17.5827 14.0053C17.5827 15.001 17.2336 15.8463 16.5354 16.5413C15.8373 17.2363 14.9904 17.5838 13.9946 17.5838Z" fill="#282D3C"/>
</g>
</svg>
